<svg version="1.1" id="Layer_1" xmlns="http://www.w3.org/2000/svg" xmlns:xlink="http://www.w3.org/1999/xlink" x="0px" y="0px"
	 width="100%" viewBox="0 0 640 640" enable-background="new 0 0 640 640" xml:space="preserve">
<path fill="#000000" opacity="1.000000" stroke="none" 
	d="
M357.141144,432.313843 
	C296.392426,454.594604 232.196335,415.877197 223.236313,353.411469 
	C217.424454,312.893433 232.796417,280.425415 265.372345,255.952499 
	C266.138977,255.376572 266.936310,254.653259 268.463989,255.081787 
	C268.421967,257.147797 266.678162,257.922913 265.371155,258.942108 
	C243.828445,275.740692 232.775803,298.018768 231.265472,325.070404 
	C229.954697,348.547180 237.120041,369.346893 251.862701,387.641357 
	C254.294434,390.658936 256.643494,392.348083 260.889282,392.422791 
	C266.491638,392.521393 272.066010,394.055328 277.659454,394.926941 
	C279.073517,395.147278 280.577423,395.724365 281.913696,394.574432 
	C281.724823,392.360260 279.887146,391.482605 278.747192,390.158417 
	C269.039581,378.882263 263.594696,365.995544 263.651123,350.965027 
	C263.681793,342.799957 263.717773,334.634094 263.639465,326.469666 
	C263.591034,321.423096 265.446167,317.499939 269.572632,314.495667 
	C277.472137,308.744476 285.267700,302.850494 293.362793,296.824890 
	C295.822388,300.690338 296.481567,304.720123 298.667908,308.067200 
	C299.779999,309.769714 297.643433,310.948914 296.349091,311.931549 
	C291.838013,315.356323 287.324890,318.779694 282.757965,322.129150 
	C278.974854,324.903748 277.072876,328.477112 277.307098,333.247986 
	C277.706421,341.382019 276.722687,349.538300 278.111053,357.672028 
	C281.596222,378.089966 299.818665,394.958313 319.349579,395.615692 
	C342.063751,396.380188 361.439575,382.223358 366.077759,360.627655 
	C368.322327,350.176971 367.054657,339.380859 366.704559,328.740570 
	C366.597412,325.484283 364.055939,323.522858 361.589325,321.705200 
	C355.286041,317.060364 349.050110,312.323090 342.706390,307.734558 
	C339.631531,305.510437 338.918945,303.315186 341.908508,300.468079 
	C342.981262,299.446442 343.838928,298.166565 344.652679,296.912354 
	C346.151886,294.601654 347.976227,294.314667 350.112366,295.906036 
	C359.194794,302.672211 368.304626,309.403259 377.297119,316.287354 
	C379.631104,318.074127 380.943390,320.956116 380.970795,323.744080 
	C381.107910,337.695007 382.757233,351.740204 379.252747,365.528748 
	C376.827393,375.071381 372.269318,383.481964 365.362946,390.573975 
	C364.216644,391.751038 363.215424,393.069336 361.614929,394.946747 
	C371.065460,394.998627 379.572693,393.085052 388.083160,391.386566 
	C389.171509,391.169342 390.071747,389.709564 390.937256,388.718903 
	C423.805389,351.098450 419.534393,293.573914 381.521484,261.091766 
	C379.442017,259.314819 376.801392,258.037262 375.299408,255.191086 
	C395.020721,259.585724 419.648315,299.820526 421.923218,332.647614 
	C424.777557,373.836487 400.514069,415.690308 357.141144,432.313843 
M325.297272,420.670868 
	C343.779846,420.097900 364.937012,412.290039 375.949188,402.146606 
	C340.019775,415.043060 303.781586,414.756805 267.455353,402.060394 
	C284.256226,414.879730 303.209045,421.096344 325.297272,420.670868 
z"/>
<path fill="#000000" opacity="1.000000" stroke="none" 
	d="
M302.690369,254.331573 
	C298.176392,250.631378 293.530090,247.560425 290.868927,242.517044 
	C288.339417,237.723160 289.382751,233.014175 294.251862,229.621735 
	C291.451843,240.006912 298.881042,242.535553 305.631012,245.471970 
	C312.795593,248.588730 320.420990,250.555603 327.335724,254.331009 
	C337.596130,259.933075 340.216919,268.230499 334.827881,278.619476 
	C331.569763,284.900452 326.458618,289.788330 322.249908,295.354614 
	C320.944672,297.080811 319.511200,298.717438 318.299683,300.505707 
	C314.594543,305.974854 310.365906,311.432373 317.254303,318.040100 
	C311.434265,317.660431 308.044220,313.697205 307.696381,307.604614 
	C307.393768,302.304169 309.368347,297.487152 311.171448,292.654449 
	C312.916077,287.978607 314.607361,283.280487 316.470032,278.651672 
	C318.840454,272.761261 316.883789,267.946136 313.001587,263.542816 
	C310.012573,260.152588 306.496643,257.345184 302.690369,254.331573 
z"/>
<path fill="#000000" opacity="1.000000" stroke="none" 
	d="
M250.755188,452.985779 
	C261.136475,453.953094 264.835144,456.344391 266.551178,462.909180 
	C268.660461,470.978302 263.511780,478.449097 255.209930,479.365479 
	C241.684311,480.858398 241.686127,480.858398 241.747116,467.119476 
	C241.758896,464.467255 241.996887,461.786774 241.697662,459.168823 
	C241.150681,454.383087 243.000946,452.322845 247.815872,452.970581 
	C248.629745,453.080048 249.471451,452.982666 250.755188,452.985779 
M250.555771,470.621277 
	C252.893936,472.841980 255.123032,471.980194 257.118958,470.195312 
	C258.762329,468.725708 259.075470,466.734589 258.221649,464.714874 
	C256.858765,461.490967 254.254456,460.589203 250.930466,460.899933 
	C249.551422,463.934418 250.224808,466.910400 250.555771,470.621277 
z"/>
<path fill="#000000" opacity="1.000000" stroke="none" 
	d="
M342.660767,479.878357 
	C334.279938,477.122559 330.603363,471.617310 331.791931,464.098480 
	C332.819244,457.599792 338.574799,452.840363 345.546509,452.724548 
	C353.159973,452.597992 358.618225,457.052917 359.911438,464.448761 
	C361.526672,473.686279 353.883209,480.733948 342.660767,479.878357 
M351.101746,468.522247 
	C352.351440,465.403900 351.276428,463.003357 348.651245,461.256226 
	C346.674988,459.941040 344.587067,460.011353 342.640442,461.468292 
	C340.367767,463.169128 339.981171,465.547455 340.389374,468.137115 
	C340.774597,470.580933 342.514374,471.840851 344.710297,472.395569 
	C347.607513,473.127472 349.371704,471.424805 351.101746,468.522247 
z"/>
<path fill="#000000" opacity="1.000000" stroke="none" 
	d="
M328.930084,291.969147 
	C335.229828,285.445831 340.683136,278.860901 340.215698,268.975067 
	C346.876404,273.076538 348.786530,280.912689 345.510834,287.989685 
	C343.620331,292.074127 341.079773,295.739502 337.999084,299.090698 
	C332.176605,305.424500 326.935547,312.194153 324.422607,321.432892 
	C320.254456,317.403259 319.844604,313.243256 320.317352,308.942566 
	C321.039001,302.377167 324.704193,297.208069 328.930084,291.969147 
z"/>
<path fill="#000000" opacity="1.000000" stroke="none" 
	d="
M212.659149,459.961365 
	C216.007111,454.315277 220.879929,452.330872 226.793610,452.887787 
	C231.948593,453.373260 235.919647,455.879150 238.028534,460.806763 
	C240.574799,466.756317 239.008987,473.433624 234.276581,477.070587 
	C229.040146,481.094940 221.137161,481.219055 216.095093,477.356079 
	C211.065262,473.502472 209.721664,467.129944 212.659149,459.961365 
M219.413315,467.115173 
	C220.401962,470.412842 222.160675,473.186737 226.018524,472.428528 
	C229.281418,471.787170 231.005554,469.277283 230.742401,465.770935 
	C230.488815,462.392303 228.397461,460.554749 225.245682,460.441711 
	C221.421570,460.304565 219.570267,462.663086 219.413315,467.115173 
z"/>
<path fill="#000000" opacity="1.000000" stroke="none" 
	d="
M427.634460,453.014893 
	C431.123199,453.245483 431.417389,455.264526 431.133270,457.651855 
	C430.835846,460.151215 428.965759,460.206726 427.064392,460.313293 
	C424.343353,460.465851 421.507050,459.756500 418.406952,461.196533 
	C420.488739,463.692596 422.926666,462.706818 425.005859,462.902435 
	C427.361206,463.124054 429.882385,462.885345 429.988739,466.321259 
	C430.105591,470.096985 427.387726,469.306183 425.123627,469.464203 
	C422.918243,469.618042 420.455353,468.564331 418.201721,470.938751 
	C420.871002,473.987091 424.339691,472.349884 427.293884,472.651489 
	C429.598663,472.886810 431.664154,472.816742 431.583557,476.043823 
	C431.521759,478.517426 430.556305,479.729187 428.013977,479.729767 
	C423.352600,479.730804 418.689758,479.775726 414.030396,479.905273 
	C410.831543,479.994263 409.624603,478.560455 409.649445,475.384155 
	C409.697540,469.227936 409.524689,463.067780 409.329742,456.912872 
	C409.241364,454.122375 410.497681,452.955780 413.186249,452.975555 
	C417.849396,453.009857 422.512909,452.990936 427.634460,453.014893 
z"/>
<path fill="#000000" opacity="1.000000" stroke="none" 
	d="
M450.012512,460.320892 
	C447.336884,460.492615 444.973480,459.754395 442.541290,461.248718 
	C444.322266,463.713287 446.635132,462.733795 448.569061,462.879272 
	C451.256683,463.081390 454.267120,462.703156 454.113190,466.767914 
	C453.965088,470.678040 450.928375,469.192993 448.863922,469.408752 
	C446.695740,469.635345 444.221985,468.797607 442.421539,471.318085 
	C444.848938,473.693268 447.662659,472.737701 450.077515,472.611755 
	C454.924011,472.358948 456.585571,474.106659 454.592773,479.858673 
	C449.062531,479.858673 443.134796,479.866302 437.207062,479.855042 
	C434.701508,479.850281 433.659943,478.514130 433.676758,476.068176 
	C433.720276,469.736481 433.769531,463.403137 433.665009,457.072906 
	C433.614441,454.011475 435.074097,452.901825 437.919556,452.940948 
	C442.084808,452.998199 446.251190,452.964203 450.416931,452.994263 
	C452.816956,453.011566 455.128540,452.956818 455.308228,456.432800 
	C455.503571,460.211945 453.160156,460.377625 450.012512,460.320892 
z"/>
<path fill="#000000" opacity="1.000000" stroke="none" 
	d="
M293.726044,479.234802 
	C290.207123,480.157104 287.405640,480.412933 285.272888,476.842163 
	C283.740356,474.276306 277.660370,474.605469 275.515228,476.889221 
	C272.165466,480.455444 271.480103,480.603577 265.973419,478.538757 
	C269.297638,470.669098 272.484802,462.748016 276.014160,454.982391 
	C277.172516,452.433685 283.063110,451.669647 284.222961,454.000916 
	C288.217377,462.029602 292.764252,469.910431 293.726044,479.234802 
z"/>
<path fill="#000000" opacity="1.000000" stroke="none" 
	d="
M324.559814,362.141144 
	C326.036163,351.868683 320.539368,344.794403 314.088531,337.570221 
	C316.749512,337.104095 317.934937,338.301788 319.106079,339.325714 
	C325.344727,344.780090 328.448853,351.688660 328.561981,359.962952 
	C328.639618,365.641479 327.122528,370.557465 321.716400,373.364410 
	C316.222626,376.216919 310.524292,375.891418 305.551208,372.569855 
	C296.028503,366.209625 291.037933,357.144409 291.798950,345.496887 
	C292.365692,336.822968 300.474823,332.200806 307.577942,336.245575 
	C307.402740,336.490753 307.258911,336.917175 307.050049,336.951874 
	C297.400696,338.554382 294.074615,343.777130 297.558167,353.057770 
	C300.127747,359.903503 304.352051,365.680756 311.848480,368.023529 
	C317.868195,369.904785 321.379852,368.334717 324.559814,362.141144 
z"/>
<path fill="#000000" opacity="1.000000" stroke="none" 
	d="
M308.300537,458.508026 
	C313.592926,452.735260 320.041229,451.077332 326.030396,453.932373 
	C328.181946,454.958069 331.395721,456.188812 329.954926,459.206512 
	C328.703949,461.826538 326.211853,463.846741 322.629120,461.381897 
	C319.554779,459.266846 316.857849,460.345093 315.241882,463.591705 
	C313.605743,466.878815 314.251160,469.726349 317.480042,471.763367 
	C319.444580,473.002777 321.367523,472.591461 323.054413,471.298309 
	C326.309296,468.803192 328.798615,470.962189 330.135529,473.212677 
	C331.753845,475.936920 328.709351,477.185455 326.833405,478.291107 
	C321.471008,481.451630 314.599365,480.684448 310.131989,476.627808 
	C305.359039,472.293732 304.624176,465.923737 308.300537,458.508026 
z"/>
<path fill="#000000" opacity="1.000000" stroke="none" 
	d="
M397.736786,460.355316 
	C395.994415,460.582489 394.580933,460.712280 394.945892,462.998749 
	C397.298706,464.299103 399.998688,463.570465 402.554962,463.667206 
	C404.924347,463.756927 406.294708,464.439026 406.324463,467.114166 
	C406.354187,469.784882 405.107971,470.640717 402.646820,470.548798 
	C401.326721,470.499512 399.992737,470.875336 398.669495,470.847443 
	C395.525726,470.781128 394.003754,472.139587 394.322968,475.363220 
	C394.636536,478.529602 393.239777,479.965698 390.004517,479.876740 
	C386.966980,479.793152 385.964691,478.224182 385.985840,475.417023 
	C386.031006,469.420837 386.012390,463.423065 385.922852,457.427429 
	C385.875549,454.259186 387.341156,452.852020 390.454254,452.900665 
	C394.950958,452.970886 399.448975,453.013397 403.945953,452.987366 
	C406.650024,452.971741 407.932892,454.257080 407.976105,456.911285 
	C408.019043,459.548096 406.502808,460.366699 404.139862,460.319794 
	C402.141968,460.280090 400.142303,460.329102 397.736786,460.355316 
z"/>
<path fill="#000000" opacity="1.000000" stroke="none" 
	d="
M378.618317,452.930603 
	C381.905609,452.925995 384.543884,453.110321 384.387787,457.048889 
	C384.232635,460.963440 381.349670,460.127258 378.963745,460.363708 
	C376.431458,460.614655 373.389343,459.264557 371.232239,462.384430 
	C373.939667,464.506500 376.685272,463.493256 379.199890,463.642303 
	C381.653809,463.787750 382.870728,464.808258 382.941681,467.264893 
	C383.020081,469.976868 381.530609,470.596985 379.123840,470.497284 
	C374.512085,470.306305 370.331055,470.605835 370.912506,477.170715 
	C371.120270,479.516693 368.855469,479.867035 366.924164,479.856567 
	C365.028046,479.846313 362.941498,479.681702 362.889954,477.211456 
	C362.741028,470.070618 362.748657,462.925079 362.803894,455.782227 
	C362.823212,453.282043 364.784485,453.014801 366.702393,452.989990 
	C370.523895,452.940491 374.346130,452.947632 378.618317,452.930603 
z"/>
<path fill="#000000" opacity="1.000000" stroke="none" 
	d="
M303.030396,219.195251 
	C305.696411,215.825317 308.492676,213.950958 312.698486,215.422821 
	C316.664825,216.810883 317.611694,220.179642 318.159241,223.593552 
	C318.823120,227.732956 318.381165,231.870605 316.250092,235.638763 
	C314.530060,238.680099 312.176849,241.125732 308.443787,240.836411 
	C304.316406,240.516525 301.988556,237.702759 300.968231,233.878677 
	C299.631805,228.869949 300.158752,224.038910 303.030396,219.195251 
z"/>
<path fill="#000000" opacity="1.000000" stroke="none" 
	d="
M197.276337,479.760742 
	C195.683670,479.129395 194.915726,478.091675 195.086060,476.906494 
	C196.140289,469.570892 191.870560,464.256470 188.371201,458.623322 
	C187.518814,457.251160 186.408600,455.925842 186.585403,453.928864 
	C193.376785,450.560638 196.128662,455.345306 198.983917,460.807770 
	C202.876633,457.108246 204.671524,449.615112 212.066635,454.289276 
	C211.074692,458.405304 208.215363,461.532837 206.208939,465.084625 
	C204.550873,468.019745 202.757599,470.906219 203.369995,474.428406 
	C204.206299,479.238251 201.681519,480.263489 197.276337,479.760742 
z"/>
<path fill="#000000" opacity="1.000000" stroke="none" 
	d="
M298.276062,295.665344 
	C298.505005,292.615387 298.454987,289.894257 299.104309,287.351776 
	C301.137390,279.390717 304.567230,271.610352 300.659607,263.024902 
	C306.090454,263.942261 309.550385,267.943909 310.200134,273.471924 
	C310.412262,275.277039 310.452362,277.139465 310.276489,278.946960 
	C309.338379,288.587494 304.066162,297.474487 305.843384,307.767944 
	C300.414398,305.251251 299.034271,300.865967 298.276062,295.665344 
z"/>
<path fill="#000000" opacity="1.000000" stroke="none" 
	d="
M366.077271,288.921265 
	C363.603119,291.747711 361.043701,294.710968 357.493347,292.670227 
	C353.594696,290.429291 354.554901,286.448120 355.804077,282.838379 
	C356.520203,280.768860 357.571350,278.898987 359.209290,277.415405 
	C361.360138,275.467224 363.716858,273.550568 366.718109,275.277222 
	C369.613495,276.942993 369.603210,279.951935 369.041779,282.823029 
	C368.626953,284.944519 367.685059,286.910675 366.077271,288.921265 
z"/>
<path fill="#000000" opacity="1.000000" stroke="none" 
	d="
M354.320862,253.703278 
	C354.236176,254.628052 354.269165,255.156586 354.094910,255.604507 
	C352.738983,259.090240 351.957001,263.369415 346.882324,262.958923 
	C343.646912,262.697205 341.470764,257.593170 342.113770,252.646332 
	C342.863220,246.880646 345.888794,242.779221 349.267548,243.439423 
	C354.880646,244.536224 354.271912,249.145584 354.320862,253.703278 
z"/>
<path fill="#000000" opacity="1.000000" stroke="none" 
	d="
M343.806458,344.582855 
	C341.631042,343.824890 341.037750,342.617737 343.401825,342.395264 
	C347.124847,342.044952 350.232819,343.558868 351.728943,347.364655 
	C355.617859,357.256897 345.885864,372.582184 335.273376,373.217468 
	C333.959961,373.296082 332.578308,373.272278 331.318542,372.946716 
	C329.751007,372.541626 327.870972,372.053650 328.393524,369.727203 
	C328.797821,367.927246 330.166534,367.703583 331.851196,367.683929 
	C340.885010,367.578278 346.346588,363.424011 348.359894,355.064209 
	C349.413239,350.690338 349.051147,346.710663 343.806458,344.582855 
z"/>
<path fill="#000000" opacity="1.000000" stroke="none" 
	d="
M289.986908,264.582092 
	C292.423737,261.212555 294.720703,261.912872 297.345490,263.921051 
	C300.228149,266.126556 301.464325,269.042389 301.807434,272.450653 
	C301.995483,274.318756 301.687347,276.174042 299.827942,277.190063 
	C297.856903,278.267029 295.912903,277.859192 294.276184,276.467682 
	C290.737457,273.459106 289.171448,269.631592 289.986908,264.582092 
z"/>
<path fill="#000000" opacity="1.000000" stroke="none" 
	d="
M288.994995,292.098633 
	C287.783691,297.184357 284.793030,296.981415 281.334839,295.210114 
	C279.515320,294.278107 278.105194,292.804016 277.274109,290.947052 
	C276.012848,288.128937 273.888519,284.942261 277.537811,282.552155 
	C280.893250,280.354492 283.536530,282.774475 285.779724,285.055481 
	C287.554169,286.859833 288.461975,289.223999 288.994995,292.098633 
z"/>
<path fill="#000000" opacity="1.000000" stroke="none" 
	d="
M286.206787,241.380127 
	C286.404297,244.123505 286.708923,246.594711 284.080261,247.813629 
	C282.017853,248.769943 280.278717,247.812103 278.701660,246.405685 
	C275.368591,243.433243 273.793213,239.811691 274.773407,235.373474 
	C275.183380,233.517258 276.845398,232.580856 278.558044,232.866913 
	C283.034973,233.614685 285.093262,236.874603 286.206787,241.380127 
z"/>
<path fill="#000000" opacity="1.000000" stroke="none" 
	d="
M320.275208,356.237274 
	C321.583374,359.456726 321.558228,362.246033 319.895447,365.351105 
	C317.176910,357.345276 310.023712,353.994598 304.434662,349.054077 
	C301.837433,346.758240 301.804596,344.474854 303.726013,339.671143 
	C304.539917,346.487549 309.185211,348.047516 313.447021,350.100769 
	C316.169220,351.412323 318.638062,353.089874 320.275208,356.237274 
z"/>
<path fill="#000000" opacity="1.000000" stroke="none" 
	d="
M340.376221,355.368774 
	C339.205597,363.281586 337.386902,365.425842 331.438293,365.683594 
	C332.560242,361.831757 336.002716,359.263733 336.246613,355.097229 
	C336.477448,351.154999 337.601532,347.167755 343.024963,346.020081 
	C342.093292,349.223419 341.258209,352.094757 340.376221,355.368774 
z"/>
<path fill="#000000" opacity="1.000000" stroke="none" 
	d="
M306.432770,362.729218 
	C304.137939,360.965088 301.798187,359.661835 301.257721,355.239868 
	C305.903473,359.015442 310.031952,361.206696 314.760956,362.040161 
	C315.789917,362.221527 316.451263,363.239685 316.248047,364.315704 
	C315.976807,365.751953 314.726776,365.973877 313.531525,365.807007 
	C311.025879,365.457275 308.861572,364.219238 306.432770,362.729218 
z"/>
<path fill="#000000" opacity="1.000000" stroke="none" 
	d="
M334.233398,358.364380 
	C333.197571,359.699829 332.752808,361.672363 330.777710,360.471100 
	C330.063416,360.036652 329.924438,359.058136 330.252991,358.238312 
	C330.903870,356.613953 332.041199,355.284393 333.884735,355.607452 
	C335.199951,355.837921 334.683472,357.116516 334.233398,358.364380 
z"/>
</svg>